<svg width="26" height="27" viewBox="0 0 26 27" fill="none" xmlns="http://www.w3.org/2000/svg">
<path d="M13.7109 1.81641C13.7109 1.26562 13.2422 0.796875 12.6797 0.796875C12.1289 0.796875 11.6602 1.26562 11.6602 1.81641V4.27734C11.6602 4.82812 12.1289 5.29688 12.6797 5.29688C13.2422 5.29688 13.7109 4.82812 13.7109 4.27734V1.81641ZM18.4688 6.28125C18.082 6.67969 18.082 7.33594 18.4688 7.72266C18.8672 8.12109 19.5234 8.13281 19.9219 7.72266L21.668 5.97656C22.0664 5.57812 22.0664 4.92188 21.668 4.52344C21.2812 4.13672 20.625 4.13672 20.2383 4.52344L18.4688 6.28125ZM5.4375 7.72266C5.83594 8.12109 6.49219 8.12109 6.87891 7.72266C7.27734 7.34766 7.27734 6.66797 6.89062 6.28125L5.14453 4.52344C4.76953 4.14844 4.10156 4.13672 3.70312 4.52344C3.31641 4.91016 3.31641 5.57812 3.69141 5.96484L5.4375 7.72266ZM12.6797 7.53516C9.41016 7.53516 6.70312 10.2422 6.70312 13.5117C6.70312 16.7812 9.41016 19.5 12.6797 19.5C15.9375 19.5 18.6445 16.7812 18.6445 13.5117C18.6445 10.2422 15.9375 7.53516 12.6797 7.53516ZM12.6797 9.32812C14.9648 9.32812 16.8633 11.2266 16.8633 13.5117C16.8633 15.7969 14.9648 17.707 12.6797 17.707C10.3828 17.707 8.48438 15.7969 8.48438 13.5117C8.48438 11.2266 10.3828 9.32812 12.6797 9.32812ZM24.3398 14.5312C24.9023 14.5312 25.3711 14.0625 25.3711 13.5117C25.3711 12.9609 24.9023 12.4922 24.3398 12.4922H21.8906C21.3398 12.4922 20.8711 12.9609 20.8711 13.5117C20.8711 14.0625 21.3398 14.5312 21.8906 14.5312H24.3398ZM1.01953 12.4922C0.46875 12.4922 0 12.9609 0 13.5117C0 14.0625 0.46875 14.5312 1.01953 14.5312H3.46875C4.03125 14.5312 4.5 14.0625 4.5 13.5117C4.5 12.9609 4.03125 12.4922 3.46875 12.4922H1.01953ZM19.9102 19.3125C19.5234 18.9258 18.8672 18.9258 18.4688 19.3125C18.082 19.6992 18.082 20.3555 18.4688 20.7539L20.2383 22.5117C20.625 22.8984 21.2812 22.8867 21.668 22.5C22.0664 22.1133 22.0664 21.457 21.668 21.0586L19.9102 19.3125ZM3.69141 21.0469C3.30469 21.4336 3.30469 22.1016 3.67969 22.4883C4.06641 22.875 4.73438 22.8867 5.13281 22.5L6.87891 20.7539C7.27734 20.3672 7.27734 19.7109 6.89062 19.3125C6.50391 18.9258 5.83594 18.9258 5.4375 19.3125L3.69141 21.0469ZM13.7109 22.7461C13.7109 22.1953 13.2422 21.7266 12.6797 21.7266C12.1289 21.7266 11.6602 22.1953 11.6602 22.7461V25.207C11.6602 25.7578 12.1289 26.2266 12.6797 26.2266C13.2422 26.2266 13.7109 25.7578 13.7109 25.207V22.7461Z" fill="#466FFF"/>
</svg>
